<svg id="Layer_1" data-name="Layer 1" xmlns="http://www.w3.org/2000/svg" viewBox="0 0 978.88 978.88"><defs><style>.cls-1{fill-rule:evenodd;}</style></defs><title>Aperture_Science_black</title><path class="cls-1" d="M797,152.06c106.23,45.07,184.25,118.37,238,216C982.81,443.21,933.48,521.2,880,595,853,446.61,824.14,300.21,797,152.06Z" transform="translate(-116.06 -112.06)"/><path class="cls-1" d="M116.06,616V587c2.82-46.17,9-88.94,21-126,91.55-17.1,181.85-35.46,273-53-85.09,127.87-169.33,256.62-255,384C133.35,742,119.57,684.15,116.06,616Z" transform="translate(-116.06 -112.06)"/><path class="cls-1" d="M1094.94,587v29c-2.82,46.17-9,88.94-21,126-92.8,16.86-183.93,35.37-276,53,86-127,172.79-258.49,259-382C1077.91,462.71,1091.54,519.75,1094.94,587Z" transform="translate(-116.06 -112.06)"/><path class="cls-1" d="M334,600q42.59,225.39,83,452.94c-106.22-45.42-185-118.28-240-215C228.27,757.54,281.59,679.21,334,600Z" transform="translate(-116.06 -112.06)"/><path class="cls-1" d="M1055.94,788h2c-46.3,109-121.31,189.31-221,245-68.29-44.59-137.41-91.41-205-138-9.21-6.35-17.5-12.46-27-20C756.25,846.9,905.85,817.19,1055.94,788Z" transform="translate(-116.06 -112.06)"/><path class="cls-1" d="M591,112.06h29c47.71,3.28,93.11,8.88,130,23,17.52,88.47,33.39,178.58,51,267-124.87-85.45-251.51-169.12-375-256C474,127.69,527.77,115.15,591,112.06Z" transform="translate(-116.06 -112.06)"/><path class="cls-1" d="M591,1090.94c-46.94-3-91-9-128-22-15.52-90.47-32.36-179.61-49-269,125.56,84.75,252.43,168.19,376,255-49.22,19.45-104.49,32.83-170,36Z" transform="translate(-116.06 -112.06)"/><path class="cls-1" d="M251.36,262.71,272,242.33c34.83-30.44,69.62-56.08,104.37-73.62,76.52,53.1,153,104.43,229.56,156.91C455.15,355,304.36,385.56,153.6,414.15,173.86,363.6,205.35,313.11,251.36,262.71Z" transform="translate(-116.06 -112.06)"/></svg>