<svg id="Layer_1" data-name="Layer 1" xmlns="http://www.w3.org/2000/svg" viewBox="0 0 624.88 624.88"><defs><style>.cls-1{fill:#fff;fill-rule:evenodd;}</style></defs><title>Aperture_Science_white</title><path class="cls-1" d="M445.73,35.59c67.82,28.78,117.62,75.57,151.91,137.87-33.28,48-64.77,97.78-98.93,144.89C481.52,223.63,463.07,130.17,445.73,35.59Z" transform="translate(-11.06 -10.06)"/><path class="cls-1" d="M11.06,331.76V313.24c1.8-29.47,5.77-56.77,13.41-80.42C82.91,221.9,140.55,210.19,198.72,199,144.39,280.62,90.62,362.81,36,444.09,22.09,412.21,13.3,375.26,11.06,331.76Z" transform="translate(-11.06 -10.06)"/><path class="cls-1" d="M635.94,313.24v18.52c-1.8,29.47-5.78,56.77-13.41,80.42C563.3,422.94,505.12,434.76,446.37,446c54.9-81.05,110.3-165,165.31-243.83C625.07,233.9,633.77,270.31,635.94,313.24Z" transform="translate(-11.06 -10.06)"/><path class="cls-1" d="M150.21,321.54q27.18,143.88,53,289.14c-67.8-29-118.1-75.5-153.18-137.23C82.69,422.11,116.73,372.11,150.21,321.54Z" transform="translate(-11.06 -10.06)"/><path class="cls-1" d="M611.05,441.54h1.27c-29.56,69.59-77.44,120.85-141.06,156.38-43.59-28.46-87.72-58.35-130.85-88.08-5.88-4.06-11.17-8-17.23-12.77C419.73,479.16,515.23,460.19,611.05,441.54Z" transform="translate(-11.06 -10.06)"/><path class="cls-1" d="M314.24,10.06h18.52c30.45,2.09,59.43,5.67,83,14.68,11.18,56.48,21.32,114,32.56,170.42C368.58,140.62,287.73,87.21,208.93,31.76,239.54,20,273.88,12,314.24,10.06Z" transform="translate(-11.06 -10.06)"/><path class="cls-1" d="M314.24,634.94c-30-2-58.11-5.72-81.7-14-9.9-57.75-20.65-114.66-31.27-171.7,80.15,54.1,161.14,107.37,240,162.76-31.41,12.41-66.7,21-108.5,23Z" transform="translate(-11.06 -10.06)"/><path class="cls-1" d="M97.43,106.23l13.17-13c22.22-19.43,44.44-35.8,66.62-47,48.85,33.9,97.7,66.67,146.55,100.17C227.52,165.12,131.27,184.65,35,202.9,48,170.63,68.06,138.4,97.43,106.23Z" transform="translate(-11.06 -10.06)"/></svg>